<svg width="24" height="24" viewBox="0 0 24 24" fill="none" xmlns="http://www.w3.org/2000/svg">
<path fill-rule="evenodd" clip-rule="evenodd" d="M8.89269 6.2902C8.95935 5.82478 9.10158 5.56808 9.30307 5.39536C9.63839 5.10795 10.3628 4.84999 11.9999 4.84999C13.637 4.84999 14.3614 5.10795 14.6967 5.39536C14.8985 5.56835 15.0409 5.82558 15.1074 6.2924C14.2012 6.18944 13.1685 6.14999 11.9999 6.14999C10.8299 6.14999 9.79765 6.18956 8.89269 6.2902ZM7.15879 6.60317C7.20273 5.67764 7.42661 4.76473 8.19673 4.10463C9.02808 3.39204 10.3036 3.14999 11.9999 3.14999C13.6962 3.14999 14.9717 3.39204 15.8031 4.10463C16.5762 4.76729 16.7988 5.68473 16.8415 6.61395C17.7271 6.86092 18.4775 7.23419 19.0803 7.79769C20.2613 8.90157 20.6877 10.5594 20.8091 12.7389C20.8356 12.8212 20.8499 12.9089 20.8499 13C20.8499 13.1577 20.8468 13.3169 20.8386 13.4766C20.8465 13.7793 20.8499 14.0911 20.8499 14.4118C20.8499 16.8466 20.532 18.8446 19.0662 20.1541C17.6392 21.429 15.3373 21.85 11.9999 21.85C10.3151 21.85 8.91591 21.768 7.77115 21.5396C6.62212 21.3105 5.67013 20.9227 4.93458 20.2676C3.45516 18.9499 3.1499 16.8222 3.1499 14C3.1499 13.7798 3.15176 13.5639 3.15589 13.3522C3.15164 13.2342 3.1499 13.1167 3.1499 13C3.1499 12.9331 3.15763 12.868 3.17226 12.8055C3.26444 10.5721 3.67174 8.85715 4.93458 7.73243C5.53519 7.19751 6.28011 6.84081 7.15879 6.60317ZM4.8569 13.341C4.91084 10.9192 5.27958 9.70165 6.06523 9.00193C6.49635 8.61797 7.12768 8.32218 8.10366 8.12752C9.08389 7.93202 10.3514 7.84999 11.9999 7.84999C13.6492 7.84999 14.9141 7.93215 15.8913 8.13297C16.8622 8.3325 17.4891 8.63735 17.9195 9.03961C18.6916 9.76135 19.0645 11.0152 19.1367 13.459C19.1136 13.8253 19.0585 14.1213 18.9612 14.3695C18.8369 14.6867 18.6281 14.9658 18.2261 15.2152C17.3433 15.763 15.5691 16.15 12.0059 16.15C8.44313 16.15 6.66513 15.7631 5.77886 15.2147C5.37493 14.9647 5.16491 14.6851 5.03987 14.3679C4.93186 14.094 4.87542 13.7617 4.8569 13.341ZM18.9825 16.743C18.8013 17.7423 18.4646 18.4119 17.9336 18.8863C17.0273 19.696 15.3292 20.15 11.9999 20.15C10.3514 20.15 9.08389 20.068 8.10366 19.8725C7.12768 19.6778 6.49635 19.382 6.06523 18.9981C5.5476 18.537 5.21095 17.8512 5.02607 16.7444C6.37561 17.5116 8.5683 17.85 12.0059 17.85C15.4446 17.85 17.6356 17.5114 18.9825 16.743ZM9.1499 14C9.1499 13.5306 9.53046 13.15 9.9999 13.15H13.9999C14.4693 13.15 14.8499 13.5306 14.8499 14C14.8499 14.4694 14.4693 14.85 13.9999 14.85L9.9999 14.85C9.53046 14.85 9.1499 14.4694 9.1499 14Z" fill="#7C8DB5"/>
</svg>
