<svg width="24" height="24" viewBox="0 0 24 24" fill="none" xmlns="http://www.w3.org/2000/svg">
<path fill-rule="evenodd" clip-rule="evenodd" d="M5.71419 4.84999C5.51304 4.84999 5.30131 4.93731 5.13143 5.12448C4.95907 5.3144 4.8499 5.58818 4.8499 5.88888V19.1111C4.8499 19.4118 4.95907 19.6856 5.13143 19.8755C5.30131 20.0627 5.51304 20.15 5.71419 20.15H15.1499V12V5.88888C15.1499 5.58818 15.0407 5.3144 14.8684 5.12448C14.6985 4.93731 14.4868 4.84999 14.2856 4.84999H5.71419ZM5.71419 21.85H15.9999H17.9999C18.7558 21.85 19.4807 21.5497 20.0152 21.0152C20.5496 20.4808 20.8499 19.7559 20.8499 19V12C20.8499 11.5306 20.4693 11.15 19.9999 11.15H16.8499V5.88888C16.8499 5.18766 16.5978 4.50055 16.1272 3.98199C15.6541 3.4607 14.9938 3.14999 14.2856 3.14999H5.71419C5.00603 3.14999 4.34569 3.4607 3.87258 3.98199C3.40196 4.50055 3.1499 5.18766 3.1499 5.88888V19.1111C3.1499 19.8123 3.40196 20.4994 3.87258 21.018C4.34568 21.5393 5.00603 21.85 5.71419 21.85ZM16.8499 20.15V12.85H19.1499V19C19.1499 19.305 19.0287 19.5975 18.8131 19.8132C18.5974 20.0288 18.3049 20.15 17.9999 20.15H16.8499ZM7.9999 8.14999C7.53046 8.14999 7.1499 8.53055 7.1499 8.99999C7.1499 9.46944 7.53046 9.84999 7.9999 9.84999H11.9999C12.4693 9.84999 12.8499 9.46944 12.8499 8.99999C12.8499 8.53055 12.4693 8.14999 11.9999 8.14999H7.9999ZM7.1499 12C7.1499 11.5306 7.53046 11.15 7.9999 11.15H11.9999C12.4693 11.15 12.8499 11.5306 12.8499 12C12.8499 12.4694 12.4693 12.85 11.9999 12.85H7.9999C7.53046 12.85 7.1499 12.4694 7.1499 12ZM7.9999 15.15C7.53046 15.15 7.1499 15.5306 7.1499 16C7.1499 16.4694 7.53046 16.85 7.9999 16.85H10.9999C11.4693 16.85 11.8499 16.4694 11.8499 16C11.8499 15.5306 11.4693 15.15 10.9999 15.15H7.9999Z" fill="#347AE2"/>
</svg>
