<svg width="30" height="30" viewBox="0 0 30 30" fill="none" xmlns="http://www.w3.org/2000/svg">
<path d="M13 9.5C13 11.8333 12.6111 13 9.5 13C6.38889 13 6 11.8333 6 9.5C6 7.16667 6.4375 6 9.5 6C12.5625 6 13 7.16667 13 9.5Z" fill="#347AE2" stroke="#347AE2" stroke-width="1.5" stroke-linecap="round" stroke-linejoin="round"/>
<path d="M13 20.5C13 22.8333 12.6111 24 9.5 24C6.38889 24 6 22.8333 6 20.5C6 18.1667 6.4375 17 9.5 17C12.5625 17 13 18.1667 13 20.5Z" fill="#347AE2" stroke="#347AE2" stroke-width="1.5" stroke-linecap="round" stroke-linejoin="round"/>
<path d="M24 20.5C24 22.8333 23.6111 24 20.5 24C17.3889 24 17 22.8333 17 20.5C17 18.1667 17.4375 17 20.5 17C23.5625 17 24 18.1667 24 20.5Z" fill="#347AE2" stroke="#347AE2" stroke-width="1.5" stroke-linecap="round" stroke-linejoin="round"/>
</svg>
